# xmcd
#
# Track frame offsets: 
#        150
#        15899
#        31799
#        48749
#        60824
#        78824
#        92849
#        106574
#        129374
#        139574
#        153899
#        163649
#
# Disc length: 2469 seconds
#
# Revision: 0
# Processed by: cddbd v1.5.2PL0 Copyright (c) Steve Scherf et al.
# Submitted via: ExactAudioCopy v1.3
#
DISCID=7609a30c
DTITLE=Sauce Boss - 100% Pure
DYEAR=2014
DGENRE=Blues
TTITLE0=Zipper Bird
TTITLE1=Marquis de Swamp
TTITLE2=Gonna Be All Right
TTITLE3=Chains
TTITLE4=Delta 9 Blues
TTITLE5=Peckerwood
TTITLE6=Chicago Combat Zone
TTITLE7=Cadillac of a Woman
TTITLE8=Hey Wilbur
TTITLE9=Sun
TTITLE10=Song of the Irish Band
TTITLE11=Outlaw Blues
EXTD=
EXTT0=
EXTT1=
EXTT2=
EXTT3=
EXTT4=
EXTT5=
EXTT6=
EXTT7=
EXTT8=
EXTT9=
EXTT10=
EXTT11=
PLAYORDER=
